<?xml version="1.0" encoding="iso-8859-1"?>
<!-- Uploaded to: SVG Repo, www.svgrepo.com, Transformed by: SVG Repo Mixer Tools -->
<svg height="800px" width="800px" version="1.1" id="Layer_1" xmlns="http://www.w3.org/2000/svg" xmlns:xlink="http://www.w3.org/1999/xlink" 
	 viewBox="0 0 512 512" xml:space="preserve">
<g transform="translate(1 1)">
	<g>
		<path style="fill:#FD9808;" d="M357.4,459.8c80.213,0,145.067-64.853,145.067-145.067H212.333
			C212.333,394.947,277.187,459.8,357.4,459.8"/>
		<path style="fill:#FD9808;" d="M212.333,314.733h179.2V87.747C354.84,64.707,307.053,50.2,255,50.2
			c-106.667,0-194.56,58.88-210.773,136.533H33.133c-14.507,0-25.6,11.093-25.6,25.6s11.093,25.6,25.6,25.6h11.093
			C58.733,307.907,132.12,362.52,224.28,372.76C216.6,354.84,212.333,335.213,212.333,314.733"/>
	</g>
	<g>
		<path style="fill:#FFDD09;" d="M357.4,425.667c61.44,0,110.933-49.493,110.933-110.933H246.467
			C246.467,376.173,295.96,425.667,357.4,425.667"/>
		<path style="fill:#FFDD09;" d="M202.947,314.733h162.987V87.747C331.8,64.707,289.133,50.2,241.347,50.2
			c-96.427,0-176.64,58.88-192,136.533h-10.24c-12.8,0-23.04,11.093-23.04,25.6s10.24,25.6,23.04,25.6h10.24
			C63,307.907,129.56,362.52,213.187,372.76C206.36,354.84,202.947,335.213,202.947,314.733"/>
	</g>
	<path d="M485.4,263.533c0,5.12-3.413,8.533-8.533,8.533c-5.12,0-8.533-3.413-8.533-8.533c0-5.12,3.413-8.533,8.533-8.533
		C481.987,255,485.4,258.413,485.4,263.533"/>
	<path d="M442.733,229.4c0,5.12-3.413,8.533-8.533,8.533c-5.12,0-8.533-3.413-8.533-8.533c0-5.12,3.413-8.533,8.533-8.533
		C439.32,220.867,442.733,224.28,442.733,229.4"/>
	<path d="M442.733,169.667c0,5.12-3.413,8.533-8.533,8.533c-5.12,0-8.533-3.413-8.533-8.533c0-5.12,3.413-8.533,8.533-8.533
		C439.32,161.133,442.733,164.547,442.733,169.667"/>
	<path d="M476.867,212.333c0,5.12-3.413,8.533-8.533,8.533c-5.12,0-8.533-3.413-8.533-8.533c0-5.12,3.413-8.533,8.533-8.533
		C473.453,203.8,476.867,207.213,476.867,212.333"/>
	<path d="M357.4,468.333c-84.48,0-153.6-69.12-153.6-153.6c0-5.12,3.413-8.533,8.533-8.533h290.133c5.12,0,8.533,3.413,8.533,8.533
		C511,399.213,441.88,468.333,357.4,468.333z M220.867,323.267c4.267,71.68,64,128,136.533,128s132.267-56.32,136.533-128H220.867z"
		/>
	<path d="M357.4,434.2c-65.707,0-119.467-53.76-119.467-119.467c0-5.12,3.413-8.533,8.533-8.533h221.867
		c5.12,0,8.533,3.413,8.533,8.533C476.867,380.44,423.107,434.2,357.4,434.2z M255,323.267c4.267,52.907,48.64,93.867,102.4,93.867
		s97.28-40.96,102.4-93.867H255z"/>
	<path d="M357.4,434.2c-5.12,0-8.533-3.413-8.533-8.533V314.733c0-5.12,3.413-8.533,8.533-8.533s8.533,3.413,8.533,8.533v110.933
		C365.933,430.787,362.52,434.2,357.4,434.2z"/>
	<path d="M435.907,401.773c-2.56,0-4.267-0.853-5.973-2.56l-78.507-78.507c-3.413-3.413-3.413-8.533,0-11.947
		c3.413-3.413,8.533-3.413,11.947,0l78.507,78.507c3.413,3.413,3.413,8.533,0,11.947
		C440.173,400.92,437.613,401.773,435.907,401.773z"/>
	<path d="M278.893,401.773c-2.56,0-4.267-0.853-5.973-2.56c-3.413-3.413-3.413-8.533,0-11.947l78.507-78.507
		c3.413-3.413,8.533-3.413,11.947,0c3.413,3.413,3.413,8.533,0,11.947l-78.507,78.507
		C283.16,400.92,281.453,401.773,278.893,401.773z"/>
	<path d="M224.28,381.293h-0.853c-93.867-10.24-167.253-64-186.027-134.827h-4.267C14.36,246.467-1,231.107-1,212.333
		S14.36,178.2,33.133,178.2H37.4C58.733,98.84,148.333,41.667,255,41.667c51.2,0,101.547,13.653,140.8,39.253
		c2.56,1.707,4.267,4.267,4.267,6.827v226.987c0,5.12-3.413,8.533-8.533,8.533H220.867c0.853,16.213,5.12,31.573,11.093,46.08
		c0.853,2.56,0.853,5.973-0.853,8.533C229.4,379.587,226.84,381.293,224.28,381.293z M33.133,195.267
		c-9.387,0-17.067,7.68-17.067,17.067s7.68,17.067,17.067,17.067h11.093c4.267,0,7.68,2.56,8.533,6.827
		c12.8,62.293,77.653,112.64,158.72,126.293c-5.12-15.36-7.68-31.573-7.68-47.787c0-5.12,3.413-8.533,8.533-8.533H383V92.867
		c-36.693-22.187-81.92-34.133-128-34.133c-99.84,0-186.88,55.467-202.24,129.707c-0.853,4.267-4.267,6.827-8.533,6.827l0,0H33.133z
		"/>
</g>
</svg>